<svg xmlns="http://www.w3.org/2000/svg" width="800" height="600" viewBox="0 0 800 600">
  <defs>
    <filter id="grain2"><feTurbulence type="fractalNoise" baseFrequency="0.64" numOctaves="4" seed="73"/><feColorMatrix type="saturate" values="0"/><feComponentTransfer><feFuncA type="linear" slope="0.25"/></feComponentTransfer></filter>
    <radialGradient id="hole2" cx="50%" cy="45%"><stop offset="0%" stop-color="#15171a"/><stop offset="60%" stop-color="#26292e"/><stop offset="100%" stop-color="#3b4046"/></radialGradient>
    <linearGradient id="light2" x1="0" y1="0" x2="0" y2="1"><stop offset="0%" stop-color="#ffffff" stop-opacity="0.10"/><stop offset="100%" stop-color="#000000" stop-opacity="0.28"/></linearGradient>
  </defs>
  <rect width="800" height="600" fill="#45484d"/>
  <rect width="800" height="600" filter="url(#grain2)" opacity="0.55"/>
  
  <g><path d="M 428 168 L 346 203 L 333 123 L 384 52 L 459 104 " fill="none" stroke="#2a2d31" stroke-opacity="0.55" stroke-width="4" stroke-linecap="round"/><path d="M 321 348 L 353 385 L 381 411 L 278 344 L 227 375 " fill="none" stroke="#2a2d31" stroke-opacity="0.55" stroke-width="4" stroke-linecap="round"/><path d="M 680 66 L 747 155 L 706 230 " fill="none" stroke="#2a2d31" stroke-opacity="0.55" stroke-width="4" stroke-linecap="round"/><path d="M 697 456 L 760 464 L 867 545 L 835 460 L 955 488 " fill="none" stroke="#2a2d31" stroke-opacity="0.55" stroke-width="3" stroke-linecap="round"/><path d="M 172 119 L 67 84 L 143 67 L 56 40 L 37 50 L 151 87 " fill="none" stroke="#2a2d31" stroke-opacity="0.55" stroke-width="2" stroke-linecap="round"/><path d="M 170 459 L 190 440 L 296 385 L 385 405 L 486 455 L 437 545 " fill="none" stroke="#2a2d31" stroke-opacity="0.55" stroke-width="3" stroke-linecap="round"/><path d="M 367 389 L 285 320 L 210 268 L 149 346 " fill="none" stroke="#2a2d31" stroke-opacity="0.55" stroke-width="2" stroke-linecap="round"/></g>
  <path d="M 526 268 L 537 299 L 508 327 L 458 332 L 413 328 L 380 312 L 356 292 L 342 268 L 355 243 L 387 229 L 408 194 L 455 211 L 481 231 L 524 240 Z" fill="url(#hole2)"/>
  <path d="M 526 268 L 537 299 L 508 327 L 458 332 L 413 328 L 380 312 L 356 292 L 342 268 L 355 243 L 387 229 L 408 194 L 455 211 L 481 231 L 524 240 Z" fill="none" stroke="#0d0f11" stroke-opacity="0.75" stroke-width="3"/>
  <circle cx="523" cy="370" r="6" fill="#33363a" opacity="0.6"/><circle cx="368" cy="225" r="4" fill="#33363a" opacity="0.6"/><circle cx="277" cy="195" r="5" fill="#33363a" opacity="0.6"/><circle cx="548" cy="252" r="6" fill="#33363a" opacity="0.6"/><circle cx="564" cy="239" r="3" fill="#33363a" opacity="0.6"/><circle cx="538" cy="316" r="2" fill="#33363a" opacity="0.6"/>
  <rect width="800" height="600" fill="url(#light2)"/>
</svg>
